<svg xmlns="http://www.w3.org/2000/svg" viewBox="0 0 158 32" width="158" height="32">
	<style>
		tspan { white-space:pre }
		.shp0 { fill: #ffffff } 
	</style>
	<g id="footer">
		<path id="Logo" class="shp0" d="M4.57 30.39L4.57 18.62C4.57 15.7 6.3 13.67 8.88 13.67C11.65 13.67 12.8 15.62 12.8 18.13L12.8 30.39L16.41 30.39L16.41 18.58C16.41 15.78 18.14 13.67 20.68 13.67C23.41 13.67 24.6 15.58 24.6 18.13L24.6 30.39L28.17 30.39L28.17 17.73C28.17 12.61 25.02 10.3 21.79 10.3C19.45 10.3 17.07 11.19 15.6 13.99C14.61 11.48 12.38 10.3 10.07 10.3C7.92 10.3 5.61 11.31 4.46 13.47L4.46 10.87L1 10.87L1 30.39L4.57 30.39ZM43.33 27.59C40.26 27.59 37.57 25.15 37.57 20.61C37.57 16.1 40.26 13.67 43.33 13.67C46.41 13.67 49.1 16.1 49.1 20.61C49.1 25.15 46.41 27.59 43.33 27.59L43.33 27.59ZM43.33 10.26C37.8 10.26 33.88 14.68 33.88 20.61C33.88 26.57 37.8 30.99 43.33 30.99C48.87 30.99 52.79 26.57 52.79 20.61C52.79 14.68 48.87 10.26 43.33 10.26L43.33 10.26ZM61.03 20.57C61.03 16.55 63.18 13.71 66.49 13.71C69.79 13.71 71.79 16.47 71.79 20.48C71.79 24.5 69.75 27.54 66.45 27.54C62.99 27.54 61.03 24.58 61.03 20.57L61.03 20.57ZM71.83 27.75C71.83 28.92 71.94 29.94 72.02 30.39L75.52 30.39C75.48 30.06 75.33 28.64 75.33 26.77L75.33 1.01L71.75 1.01L71.75 13.63C71.14 12.04 69.37 10.34 66.1 10.34C60.87 10.34 57.34 15.05 57.34 20.57C57.34 26.37 60.68 30.91 66.1 30.91C68.98 30.91 70.94 29.29 71.83 27.42L71.83 27.75ZM94.94 28.03C94.94 28.84 95.02 29.94 95.1 30.39L98.56 30.39C98.48 29.7 98.36 28.32 98.36 26.77L98.36 10.87L94.75 10.87L94.75 22.64C94.75 25.6 93.29 27.63 90.37 27.63C87.33 27.63 86.18 25.27 86.18 22.59L86.18 10.87L82.57 10.87L82.57 23.16C82.57 27.59 85.18 30.99 89.49 30.99C91.64 30.99 93.94 30.06 94.94 28.03L94.94 28.03ZM109.6 30.39L109.6 1.01L105.99 1.01L105.99 30.39L109.6 30.39ZM119.57 18.62C119.73 16.1 121.57 13.63 124.61 13.63C127.88 13.63 129.61 15.82 129.68 18.62L119.57 18.62ZM130.22 23.69C129.53 25.88 128.03 27.63 125.03 27.63C121.92 27.63 119.54 25.19 119.46 21.7L133.37 21.7C133.41 21.46 133.45 20.97 133.45 20.48C133.45 14.4 130.26 10.26 124.57 10.26C119.92 10.26 115.73 14.44 115.73 20.57C115.73 27.18 120.07 30.99 125.03 30.99C129.34 30.99 132.3 28.28 133.33 24.83L130.22 23.69ZM144.78 6.56C144.78 5.21 145 4.18 145.49 3.53C145.83 3.05 146.31 2.74 147.04 2.74C147.77 2.74 148.24 3.05 148.59 3.53C149.07 4.18 149.29 5.21 149.29 6.56C149.29 7.9 149.07 8.93 148.59 9.58C148.24 10.06 147.77 10.37 147.04 10.37C146.31 10.37 145.83 10.06 145.49 9.58C145.01 8.93 144.78 7.9 144.78 6.56ZM142.93 6.56C142.93 7.96 143.15 9.29 143.83 10.37C144.48 11.4 145.54 12.1 147.04 12.1C148.55 12.1 149.58 11.4 150.23 10.37C150.92 9.29 151.13 7.96 151.13 6.56C151.13 5.15 150.92 3.82 150.23 2.74C149.58 1.71 148.55 1.01 147.04 1.01C145.54 1.01 144.48 1.71 143.83 2.74C143.15 3.82 142.93 5.15 142.93 6.56L142.93 6.56ZM157 11.86L157 1.25L155.39 1.25C155.17 2.37 154.18 3.22 152.74 3.25L152.74 4.59L155.17 4.59L155.17 11.86L157 11.86Z" />
	</g>
</svg>